<?xml version="1.0" encoding="utf-8"?>
<!-- Generator: Adobe Illustrator 21.1.0, SVG Export Plug-In . SVG Version: 6.00 Build 0)  -->
<svg version="1.1" id="Layer_1" xmlns="http://www.w3.org/2000/svg" xmlns:xlink="http://www.w3.org/1999/xlink" x="0px" y="0px"
	 viewBox="0 0 283.5 283.5" style="enable-background:new 0 0 283.5 283.5;" xml:space="preserve">
<style type="text/css">
	.st0{fill:#FFCF2C;}
</style>
<circle class="st0" cx="141.7" cy="141.7" r="141.7"/>
<g>
	<path d="M89.9,188.3c-2,21.5-3,37.9-3,49.3H65.3l8.9-160.7c0.8-6.6,1.6-13.3,2.4-20.1c2.2-9.1,7.2-15.7,15-19.9c3.8-2,8.7-3,14.8-3
		c7.4,0,13.4,1.9,17.9,5.7c4.5,3.8,6.7,9.3,6.7,16.4c0,11.6-4.9,24.3-14.6,37.9c-7.4,10.6-14.9,20.5-22.3,29.8
		c-0.9,6.1-1.4,13-1.4,20.7c12.3-18.9,23.6-28.5,33.9-28.6c9.1-0.1,15.4,2,19.1,6.4c3.7,4.4,5.1,11.3,4.5,20.6
		c-0.5,8.9-4.9,18-13.2,27.1c-8.3,9.1-16.7,14.6-25.4,16.5c8.3,12.6,12.8,19.4,13.6,20.5c4.5,6.1,7.9,9.3,10.4,9.5
		c10.3,1.1,21.6-8.8,34.1-29.6c2,2,5,5.8,8.9,11.4c-13.8,28.5-28.4,42.5-43.8,41.8c-7.3-0.3-13.1-2.7-17.5-7.3
		c-2.6-2.7-6.6-8.4-12-17C99.2,206.1,94.1,197,89.9,188.3z M121.4,138.6c-5.1,3.2-10.6,8.5-16.2,15.6c-3.5,5-7,9.9-10.6,14.8
		c1.1,0.1,2.2,0.2,3.4,0.2c12.2,0,21.8-6.3,29-18.9c1.4-2.4,2-4.9,2-7.3c0-3.8-1.4-5.7-4.1-5.7C123.9,137.4,122.7,137.8,121.4,138.6
		z M97.4,61.5C95.8,79.1,95,91.2,95,98c8.7-14.3,13.9-25.4,15.8-33.3c0.4-1.9,0.6-3.7,0.6-5.3c0-5.3-1.9-7.9-5.7-7.9
		c-1.9,0-3.7,0.9-5.4,2.6C98.7,55.9,97.7,58.4,97.4,61.5z"/>
	<path d="M185.5,239c-14.9-4.6-23-14.5-24.4-29.7c-1.4-14.8,1.9-23.4,9.7-25.7c2.7-0.8,5.1-1.2,7.1-1.2c5.3,0,9.2,2.8,11.8,8.5
		c0.7,1.5,1,3.3,1,5.5c0,7.8-3.3,11.8-9.9,11.8c-0.9,0-2-0.1-3-0.4c0.3,4.7,2.1,8.3,5.5,10.8c2.7,2,6,3,9.7,3c3.5,0,6.7-1.2,9.5-3.7
		c3.8-3.2,5.7-8,5.7-14.2c0-1.8-0.1-3.6-0.4-5.5c-0.5-3.5-3-7.6-7.5-12.4c-0.1-0.3-4.3-4.3-12.6-12.2c-9.1-8.7-14.5-17.2-16.2-25.8
		c-1.2-6.1-1.8-10.5-1.8-13.2c0-4.6,1.3-9,3.9-13.2c3.7-6,10.1-9.3,19.3-9.9c4.2-0.3,8,0.5,11.6,2.2c3.5,1.8,5.5,4.4,5.9,7.9
		c1.2,11.8-2.8,17.7-12.2,17.7c-2.6,0-5.4-0.5-8.5-1.4c0,3.9,3,9,9.1,15.3c1.9,1.9,7.2,6.6,15.8,14c8.3,7.1,13.2,15.9,14.8,26.6
		c0.7,4.1,1,7.8,1,11.2c0,8.9-2.1,16-6.3,21.1c-7.4,9.2-17.7,13.8-30.8,13.8C190.2,240,187.6,239.7,185.5,239z"/>
</g>
</svg>
